<?xml version="1.0" encoding="utf-8"?>
<!-- Generator: Adobe Illustrator 23.0.5, SVG Export Plug-In . SVG Version: 6.00 Build 0)  -->
<svg version="1.1" id="Layer_1" xmlns="http://www.w3.org/2000/svg" xmlns:xlink="http://www.w3.org/1999/xlink" x="0px" y="0px"
	 viewBox="0 0 165 46" style="enable-background:new 0 0 165 46;" xml:space="preserve">
<style type="text/css">
	.st0{fill:#FFFFFF;}
</style>
<g>
	<g>
		<path class="st0" d="M66.7,30c-1.3,1.5-3.7,3.1-7.8,3.1c-6.2,0-10.9-4.3-10.9-10.9S52.9,11.3,59,11.3c4,0,6.4,1.7,7.5,2.8
			l-1.3,2.4c-0.8-1-3.2-2.6-6.2-2.6c-4.6,0-7.9,3.3-7.9,8.3s3.3,8.3,7.9,8.3c2.8,0,5-1.1,6.3-2.6L66.7,30z"/>
		<path class="st0" d="M75.9,33.1c-4.4,0-7.8-3-7.8-7.6c0-4.5,3.4-7.6,7.8-7.6c4.3,0,7.7,3.1,7.7,7.6C83.6,30.1,80.2,33.1,75.9,33.1
			z M75.9,20.3c-3,0-4.8,2.3-4.8,5.1c0,2.9,1.8,5.2,4.8,5.2c2.9,0,4.7-2.3,4.7-5.2C80.6,22.6,78.8,20.3,75.9,20.3z"/>
		<path class="st0" d="M100.9,29.7c0,3.2-0.5,5-1.6,6.3c-1.1,1.3-2.9,2.8-6.5,2.8c-3.6,0-6.1-1.9-6.5-2.2l1.4-2.1
			c0.8,0.7,3,1.8,5.2,1.8c2.2,0,3.4-0.9,4-1.6c0.6-0.7,1.1-2.1,1.1-4.1V30h-0.1c-1,1.5-2.6,2.6-5.1,2.6c-3.8,0-7-2.7-7-7.4
			s3.3-7.4,7-7.4c2.5,0,4.2,1.2,5.1,2.6H98l0-2.3h2.9L100.9,29.7L100.9,29.7z M93.4,20.3c-3,0-4.6,2.2-4.6,5s1.7,5,4.6,5
			c3,0,4.6-2.2,4.6-5C98,22.5,96.4,20.3,93.4,20.3z"/>
		<path class="st0" d="M113.3,31.8c-1,0.8-2.4,1.3-4.1,1.3c-2.5,0-4.5-1-5.7-2.6l1.4-1.7c1.1,1.4,3,2.1,4.3,2.1s2.8-0.5,2.8-2.1
			s-2.3-2.1-3.3-2.4c-1-0.3-1.3-0.4-2-0.8c-0.9-0.5-2.3-1.4-2.3-3.5c0-2.7,2.3-4.2,4.9-4.2c2.6,0,4.1,0.9,5,1.9l-1.2,1.8
			c-0.9-0.9-2.3-1.6-3.7-1.6s-2.3,0.6-2.3,1.8c0,1.2,1.4,1.7,2.9,2.2c0.8,0.3,1.4,0.5,2,0.7c0.6,0.2,1.3,0.6,1.7,1
			c0.6,0.5,1.2,1.4,1.2,2.7C114.8,29.9,114.2,31,113.3,31.8z"/>
		<path class="st0" d="M124.8,32.6c0,0-1.1,0.5-2.7,0.5c-1.5,0-2.5-0.6-3.1-1.5c-0.6-0.9-0.7-2.1-0.7-4.4v-6.7h-2.2v-2.4h2.2v-4.4h3
			v4.4h3.5v2.4h-3.5v6.6c0,1.2,0,2.1,0.4,2.7c0.3,0.5,0.7,0.7,1.5,0.7c0.9,0,1.5-0.3,1.5-0.3L124.8,32.6z"/>
		<path class="st0" d="M138.6,32.8h-2.9l0-1.8c-0.6,0.6-2,2.2-4.6,2.2c-2.7,0-5-1.7-5-4.5c0-2.9,2.3-4.3,5.7-4.5l3.9-0.2v-0.6
			c0-2.2-1.5-3.3-3.6-3.3c-2.1,0-3.9,1-4.4,1.3l-0.9-2c1.1-0.6,3-1.5,5.5-1.5s3.8,0.7,4.8,1.7c1,1,1.6,2.2,1.6,4.7L138.6,32.8
			L138.6,32.8z M135.7,25.8l-3.4,0.2c-2.4,0.1-3.3,1.1-3.3,2.5s1.1,2.5,3,2.5c1.9,0,3.2-1.3,3.7-2.1L135.7,25.8L135.7,25.8z"/>
		<path class="st0" d="M149.5,32.6c0,0-1.1,0.5-2.7,0.5s-2.5-0.6-3.1-1.5c-0.6-0.9-0.7-2.1-0.7-4.4v-6.7h-2.2v-2.4h2.2v-4.4h3v4.4
			h3.5v2.4h-3.5v6.6c0,1.2,0,2.1,0.4,2.7c0.3,0.5,0.7,0.7,1.5,0.7c0.9,0,1.5-0.3,1.5-0.3L149.5,32.6z"/>
		<path class="st0" d="M164.9,26.2h-11.3c0.2,2.9,2,4.6,4.7,4.6c2.7,0,4.5-1.5,4.8-1.7l1.2,1.7c-0.2,0.2-2.1,2.3-6.4,2.3
			c-4.3,0-7.3-3-7.3-7.7c0-4.6,3.3-7.6,7.4-7.6c4.1,0,6.9,2.9,6.9,7C165,25.4,164.9,26.2,164.9,26.2z M162.2,24.2
			c0-1.6-1.3-4.2-4.2-4.2c-2.9,0-4.2,2.4-4.3,4.2H162.2z"/>
	</g>
	<path class="st0" d="M40,14.5c0.1-2.1-0.3-3-0.5-3.3c-0.2-0.4-0.8-1.1-2.6-2.1c-0.3-0.2-10-5.8-15.1-8.7C21.3,0.2,20.7,0,20,0
		c-0.7,0-1.3,0.2-1.8,0.4C17.6,0.8,2.2,9.7,1.6,10c-0.6,0.4-1,1-1.1,1.2c-0.1,0.1-0.2,0.3-0.3,0.7v0l0,0C0.1,12.4,0,13.3,0,14.5
		C0,14.9,0,26.1,0,32c0,0.6,0.2,1.2,0.5,1.8c0.3,0.6,0.8,1.1,1.3,1.3c0.7,0.4,16,9.3,16.6,9.6c0.3,0.2,0.6,0.2,0.9,0.3l0,0l0.1,0
		c0.2,0,0.4,0,0.5,0c0,0,0.1,0,0.1,0s0,0,0.1,0c0.1,0,0.3,0,0.5,0l0.1,0v0c0.3,0,0.6-0.1,0.9-0.3c0.6-0.3,15.9-9.2,16.6-9.6
		c0.5-0.3,0.9-0.8,1.3-1.3c0.3-0.6,0.5-1.2,0.5-1.8C40,26.1,40,14.9,40,14.5z M19.7,10.8C19.7,10.8,19.7,10.8,19.7,10.8
		c0,0,0.1,0,0.1,0c0,0,0,0,0.1,0c0,0,0,0,0.1,0s0,0,0.1,0c0,0,0.1,0,0.1,0c0,0,0,0,0.1,0c0,0,0.1,0,0.1,0l0,0c0.1,0,0.2,0,0.2,0.1
		l9.1,5.3L20,21.7l-9.6-5.6l9.1-5.3C19.6,10.9,19.6,10.8,19.7,10.8z M30.4,27.7C30.4,27.8,30.4,27.8,30.4,27.7c0,0.4-0.1,0.8-0.4,1
		c-0.4,0.2-5.7,3.3-9.2,5.3V22.9l9.6-5.6C30.4,20.3,30.4,27.4,30.4,27.7L30.4,27.7z M9.7,27.7C9.7,27.7,9.7,27.7,9.7,27.7
		C9.7,27.7,9.7,27.6,9.7,27.7c0-0.1,0-0.1,0-0.1c0,0,0-0.1,0-0.1c0,0,0,0,0,0c0,0,0-0.1,0-0.1c0,0,0,0,0,0c0,0,0-0.1,0-0.1
		c0,0,0,0,0,0c0-0.1,0-0.1,0-0.2c0,0,0,0,0,0c0-0.1,0-0.1,0-0.2c0,0,0-0.1,0-0.1c0-0.1,0-0.3,0-0.5c0-0.3,0-0.5,0-0.8
		c0-0.3,0-0.6,0-0.9c0,0,0-0.1,0-0.1c0-0.1,0-0.1,0-0.2c0-0.1,0-0.2,0-0.3c0-0.2,0-0.4,0-0.6c0-0.1,0-0.1,0-0.2c0-0.9,0-1.9,0-2.8
		c0,0,0,0,0,0v0c0-1.1,0-2,0-2.8l4.4,2.5l5.2,3v11.2c-2.5-1.5-8.5-5-9.1-5.3C9.7,28.6,9.6,28,9.7,27.7C9.7,27.7,9.7,27.7,9.7,27.7z
		 M18.9,1.7c0.6-0.3,1.6-0.3,2.2,0c0.6,0.3,14.8,8.5,15.2,8.7c0.8,0.4,1.3,0.8,1.6,1l-6.1,3.5l0,0l-0.7,0.4l-9.8-5.7l0,0
		c0,0,0,0,0,0c-0.3-0.2-0.8-0.3-1.2-0.3c-0.5,0-0.9,0.1-1.2,0.3L9,15.3l-0.7-0.4l0,0l-6.1-3.5c0.1-0.1,0.1-0.1,0.2-0.2
		C2.8,11,13.4,4.9,18.9,1.7z M19.1,43.4c-0.4-0.2-11-6.4-16.5-9.6c-0.3-0.2-0.6-0.5-0.8-0.8c-0.2-0.4-0.3-0.8-0.3-1.1
		c0-0.7,0-17,0-17.5c0-0.9,0-1.5,0.1-1.9l1.8,1l5,2.9c0,0.1,0,0.2,0,0.3c0,0.1,0,0.2,0,0.3c0,2.3,0,6,0,8.3c0,0,0,0,0,0.1
		c0,0.1,0,0.2,0,0.3c0,0,0,0.1,0,0.1c0,0.1,0,0.1,0,0.2c0,0.1,0,0.1,0,0.2c0,0,0,0.1,0,0.1c0,0,0,0.1,0,0.1c0,0,0,0.1,0,0.1
		c0,0,0,0.1,0,0.2c0,0,0,0.1,0,0.1c0,0,0,0.1,0,0.2c0,0,0,0,0,0.1c0,0,0,0.1,0,0.1c0,0,0,0,0,0c0,0,0,0.1,0,0.1v0c0,0,0,0.1,0,0.1
		c0,0,0,0,0,0c0,0,0,0,0,0.1c0,0,0,0,0,0.1c0,0.1,0,0.2,0,0.3c0,0,0,0,0,0c0,0,0,0.1,0,0.1c0,0,0,0,0,0c0,0,0,0.1,0,0.1c0,0,0,0,0,0
		c0,0,0,0.1,0,0.1c0,0,0,0,0,0.1c0,0,0,0.1,0,0.1c0,0,0,0.1,0,0.1c0,0,0,0.1,0,0.1c0,0,0,0,0,0.1c0,0,0,0.1,0,0.1c0,0,0,0,0,0.1
		c0,0,0,0.1,0,0.1c0,0,0,0,0,0.1s0,0,0,0.1s0,0,0,0.1c0,0,0,0.1,0.1,0.1c0,0,0,0,0,0.1c0,0,0,0.1,0.1,0.1c0,0,0,0,0,0
		c0,0,0.1,0.1,0.1,0.1c0,0,0,0,0,0c0,0,0.1,0.1,0.1,0.1c0,0,0,0,0,0c0,0,0.1,0.1,0.1,0.1c0,0,0,0,0,0c0,0,0.1,0.1,0.1,0.1l9.8,5.7
		v0.8l0,0l0,7C19.2,43.5,19.1,43.5,19.1,43.4z M38.6,14.5c0,0.4,0,16.8,0,17.5c0,0.3-0.1,0.7-0.3,1.1c-0.2,0.4-0.5,0.7-0.8,0.8
		C32,37.1,21.4,43.2,21,43.4c-0.1,0-0.2,0.1-0.2,0.1v-7.8c1.7-1,9.2-5.3,9.8-5.7c0.7-0.4,1.1-1.1,1.2-1.8c0,0,0,0,0,0
		c0-0.1,0-0.2,0-0.2c0,0,0,0,0,0c0-0.1,0-0.1,0-0.2v0l0-11.2l0.4-0.2l6.4-3.7C38.6,13,38.7,13.6,38.6,14.5z"/>
</g>
</svg>
